<?xml version="1.0" encoding="UTF-8" standalone="no"?>
<svg
   viewBox="0 0 92 92"
   version="1.1"
   x="0px"
   y="0px"
   id="svg18"
   sodipodi:docname="pipebot-icon-dark.svg"
   width="92"
   height="92"
   inkscape:version="1.2.2 (732a01da63, 2022-12-09)"
   xmlns:inkscape="http://www.inkscape.org/namespaces/inkscape"
   xmlns:sodipodi="http://sodipodi.sourceforge.net/DTD/sodipodi-0.dtd"
   xmlns="http://www.w3.org/2000/svg"
   xmlns:svg="http://www.w3.org/2000/svg"
   xmlns:rdf="http://www.w3.org/1999/02/22-rdf-syntax-ns#"
   xmlns:cc="http://creativecommons.org/ns#"
   xmlns:dc="http://purl.org/dc/elements/1.1/"
   xmlns:sketch="http://www.bohemiancoding.com/sketch/ns">
  <defs
     id="defs22" />
  <sodipodi:namedview
     id="namedview20"
     pagecolor="#555555"
     bordercolor="#000000"
     borderopacity="0.25"
     inkscape:showpageshadow="2"
     inkscape:pageopacity="0"
     inkscape:pagecheckerboard="0"
     inkscape:deskcolor="#d1d1d1"
     showgrid="false"
     inkscape:zoom="7.016"
     inkscape:cx="2.2805017"
     inkscape:cy="46.607754"
     inkscape:window-width="1920"
     inkscape:window-height="1057"
     inkscape:window-x="-8"
     inkscape:window-y="-8"
     inkscape:window-maximized="1"
     inkscape:current-layer="g10" />
  <title
     id="title2">bot3_open</title>
  <desc
     id="desc4">Created with Sketch.</desc>
  <g
     stroke="none"
     stroke-width="1"
     fill="none"
     fill-rule="evenodd"
     sketch:type="MSPage"
     id="g12"
     transform="translate(-9.8574686,-0.7309008)">
    <g
       sketch:type="MSArtboardGroup"
       fill="#000000"
       id="g10">
      <path
         d="m 55.857469,16.730901 c 21.433648,0 31.382264,8.613774 36.000002,16.610092 l -2e-6,-24.6683446 V 6.7309008 h 4 v 1.9417476 46.1165046 0.970874 10.970874 c 0,0 0,20 -40,20 -40,0 -40,-20 -40,-20 V 55.760027 54.789153 8.6726484 6.7309008 h 4 V 8.6726484 33.340989 c 4.617735,-7.996314 14.566351,-16.610088 36,-16.610088 z m -30,40 c 0,-8.284271 6.708114,-15 15.00508,-15 h 29.989839 c 8.287077,0 15.005081,6.713907 15.005081,15 0,8.284271 -6.708114,15 -15.005081,15 H 40.862549 c -8.287077,0 -15.00508,-6.713908 -15.00508,-15 z m -6,-50.0000002 c 0,-1.1045695 -0.895431,-2 -2,-2 -1.10457,0 -2,0.8954305 -2,2 z m 76,0 c 0,-1.1045695 -0.895431,-2 -2,-2 -1.10457,0 -2,0.8954305 -2,2 z"
         sketch:type="MSShapeGroup"
         id="path8"
         style="fill:#ffffff;fill-opacity:1" />
      <path
         style="fill:#ffffff;fill-opacity:1;stroke:#ffffff;stroke-width:0"
         id="path13433"
         sodipodi:type="arc"
         sodipodi:cx="43.620407"
         sodipodi:cy="54.902775"
         sodipodi:rx="3.8802183"
         sodipodi:ry="3.8802183"
         sodipodi:start="0"
         sodipodi:end="6.2554783"
         sodipodi:open="true"
         sodipodi:arc-type="arc"
         d="m 47.500625,54.902775 a 3.8802183,3.8802183 0 0 1 -3.853341,3.880125 3.8802183,3.8802183 0 0 1 -3.906723,-3.826372 3.8802183,3.8802183 0 0 1 3.79922,-3.933134 3.8802183,3.8802183 0 0 1 3.959355,3.771885" />
      <path
         style="fill:#ffffff;fill-opacity:1;stroke:#ffffff;stroke-width:0"
         id="path13433-0"
         sodipodi:type="arc"
         sodipodi:cx="69.068596"
         sodipodi:cy="54.953178"
         sodipodi:rx="3.8802183"
         sodipodi:ry="3.8802183"
         sodipodi:start="0"
         sodipodi:end="6.2554783"
         sodipodi:open="true"
         sodipodi:arc-type="arc"
         d="m 72.948814,54.953178 a 3.8802183,3.8802183 0 0 1 -3.853341,3.880126 3.8802183,3.8802183 0 0 1 -3.906723,-3.826373 3.8802183,3.8802183 0 0 1 3.79922,-3.933133 3.8802183,3.8802183 0 0 1 3.959355,3.771885" />
      <path
         d="m 43.539053,56.95382 v 0 c 1.104569,0 2,-0.895431 2,-2 0,-1.10457 -0.895431,-2 -2,-2 -1.104569,0 -2,0.89543 -2,2 0,1.104569 0.895431,2 2,2 z m 0,4 c -3.313709,0 -6,-2.686292 -6,-6 0,-3.313709 2.686291,-6 6,-6 3.313708,0 6,2.686291 6,6 0,3.313708 -2.686292,6 -6,6 z"
         sketch:type="MSShapeGroup"
         id="path6"
         sodipodi:nodetypes="sssssssssss"
         style="fill:#b50000;fill-opacity:1;stroke:#b40000;stroke-width:0;stroke-dasharray:none;stroke-opacity:1" />
      <path
         d="m 69.065564,56.923888 c 1.104569,0 2,-0.895431 2,-2 0,-1.10457 -0.895431,-2 -2,-2 -1.104569,0 -2,0.89543 -2,2 0,1.104569 0.895431,2 2,2 z m 0,4 v 0 c -3.313708,0 -6,-2.686292 -6,-6 0,-3.313709 2.686292,-6 6,-6 3.313709,0 6,2.686291 6,6 0,3.313708 -2.686291,6 -6,6 z"
         id="path1119"
         style="fill:#b50000;fill-opacity:1;stroke:#b40000;stroke-width:0;stroke-dasharray:none;stroke-opacity:1" />
    </g>
  </g>
  <metadata
     id="metadata4959">
    <rdf:RDF>
      <cc:Work
         rdf:about="">
        <dc:title>bot3_open</dc:title>
      </cc:Work>
    </rdf:RDF>
  </metadata>
</svg>
